<svg xmlns="http://www.w3.org/2000/svg" width="88" height="88" viewBox="0 0 88 88" shape-rendering="crispEdges"><rect width="88" height="88" fill="#fff"/><path fill="#000" d="M6 6h3v3h-3zM9 6h3v3h-3zM12 6h3v3h-3zM15 6h3v3h-3zM18 6h3v3h-3zM21 6h3v3h-3zM24 6h3v3h-3zM33 6h3v3h-3zM36 6h3v3h-3zM42 6h3v3h-3zM48 6h3v3h-3zM54 6h3v3h-3zM60 6h3v3h-3zM63 6h3v3h-3zM66 6h3v3h-3zM69 6h3v3h-3zM72 6h3v3h-3zM75 6h3v3h-3zM78 6h3v3h-3zM6 9h3v3h-3zM24 9h3v3h-3zM30 9h3v3h-3zM36 9h3v3h-3zM39 9h3v3h-3zM45 9h3v3h-3zM54 9h3v3h-3zM60 9h3v3h-3zM78 9h3v3h-3zM6 12h3v3h-3zM12 12h3v3h-3zM15 12h3v3h-3zM18 12h3v3h-3zM24 12h3v3h-3zM36 12h3v3h-3zM39 12h3v3h-3zM51 12h3v3h-3zM60 12h3v3h-3zM66 12h3v3h-3zM69 12h3v3h-3zM72 12h3v3h-3zM78 12h3v3h-3zM6 15h3v3h-3zM12 15h3v3h-3zM15 15h3v3h-3zM18 15h3v3h-3zM24 15h3v3h-3zM36 15h3v3h-3zM42 15h3v3h-3zM45 15h3v3h-3zM48 15h3v3h-3zM54 15h3v3h-3zM60 15h3v3h-3zM66 15h3v3h-3zM69 15h3v3h-3zM72 15h3v3h-3zM78 15h3v3h-3zM6 18h3v3h-3zM12 18h3v3h-3zM15 18h3v3h-3zM18 18h3v3h-3zM24 18h3v3h-3zM30 18h3v3h-3zM33 18h3v3h-3zM36 18h3v3h-3zM42 18h3v3h-3zM51 18h3v3h-3zM60 18h3v3h-3zM66 18h3v3h-3zM69 18h3v3h-3zM72 18h3v3h-3zM78 18h3v3h-3zM6 21h3v3h-3zM24 21h3v3h-3zM42 21h3v3h-3zM60 21h3v3h-3zM78 21h3v3h-3zM6 24h3v3h-3zM9 24h3v3h-3zM12 24h3v3h-3zM15 24h3v3h-3zM18 24h3v3h-3zM21 24h3v3h-3zM24 24h3v3h-3zM30 24h3v3h-3zM36 24h3v3h-3zM42 24h3v3h-3zM48 24h3v3h-3zM54 24h3v3h-3zM60 24h3v3h-3zM63 24h3v3h-3zM66 24h3v3h-3zM69 24h3v3h-3zM72 24h3v3h-3zM75 24h3v3h-3zM78 24h3v3h-3zM36 27h3v3h-3zM39 27h3v3h-3zM42 27h3v3h-3zM45 27h3v3h-3zM54 27h3v3h-3zM6 30h3v3h-3zM12 30h3v3h-3zM18 30h3v3h-3zM24 30h3v3h-3zM42 30h3v3h-3zM45 30h3v3h-3zM48 30h3v3h-3zM51 30h3v3h-3zM54 30h3v3h-3zM66 30h3v3h-3zM75 30h3v3h-3zM6 33h3v3h-3zM12 33h3v3h-3zM15 33h3v3h-3zM18 33h3v3h-3zM27 33h3v3h-3zM33 33h3v3h-3zM36 33h3v3h-3zM39 33h3v3h-3zM51 33h3v3h-3zM54 33h3v3h-3zM57 33h3v3h-3zM60 33h3v3h-3zM63 33h3v3h-3zM75 33h3v3h-3zM78 33h3v3h-3zM6 36h3v3h-3zM18 36h3v3h-3zM21 36h3v3h-3zM24 36h3v3h-3zM30 36h3v3h-3zM33 36h3v3h-3zM42 36h3v3h-3zM48 36h3v3h-3zM51 36h3v3h-3zM57 36h3v3h-3zM60 36h3v3h-3zM63 36h3v3h-3zM69 36h3v3h-3zM72 36h3v3h-3zM75 36h3v3h-3zM78 36h3v3h-3zM6 39h3v3h-3zM18 39h3v3h-3zM27 39h3v3h-3zM33 39h3v3h-3zM51 39h3v3h-3zM54 39h3v3h-3zM63 39h3v3h-3zM75 39h3v3h-3zM78 39h3v3h-3zM9 42h3v3h-3zM15 42h3v3h-3zM21 42h3v3h-3zM24 42h3v3h-3zM30 42h3v3h-3zM33 42h3v3h-3zM42 42h3v3h-3zM45 42h3v3h-3zM48 42h3v3h-3zM60 42h3v3h-3zM63 42h3v3h-3zM66 42h3v3h-3zM72 42h3v3h-3zM12 45h3v3h-3zM15 45h3v3h-3zM18 45h3v3h-3zM21 45h3v3h-3zM27 45h3v3h-3zM30 45h3v3h-3zM33 45h3v3h-3zM39 45h3v3h-3zM51 45h3v3h-3zM75 45h3v3h-3zM78 45h3v3h-3zM6 48h3v3h-3zM15 48h3v3h-3zM18 48h3v3h-3zM21 48h3v3h-3zM24 48h3v3h-3zM27 48h3v3h-3zM36 48h3v3h-3zM42 48h3v3h-3zM48 48h3v3h-3zM9 51h3v3h-3zM15 51h3v3h-3zM21 51h3v3h-3zM33 51h3v3h-3zM48 51h3v3h-3zM51 51h3v3h-3zM54 51h3v3h-3zM57 51h3v3h-3zM63 51h3v3h-3zM66 51h3v3h-3zM69 51h3v3h-3zM6 54h3v3h-3zM12 54h3v3h-3zM18 54h3v3h-3zM21 54h3v3h-3zM24 54h3v3h-3zM36 54h3v3h-3zM39 54h3v3h-3zM45 54h3v3h-3zM54 54h3v3h-3zM57 54h3v3h-3zM60 54h3v3h-3zM63 54h3v3h-3zM66 54h3v3h-3zM69 54h3v3h-3zM78 54h3v3h-3zM30 57h3v3h-3zM33 57h3v3h-3zM54 57h3v3h-3zM66 57h3v3h-3zM72 57h3v3h-3zM78 57h3v3h-3zM6 60h3v3h-3zM9 60h3v3h-3zM12 60h3v3h-3zM15 60h3v3h-3zM18 60h3v3h-3zM21 60h3v3h-3zM24 60h3v3h-3zM33 60h3v3h-3zM36 60h3v3h-3zM39 60h3v3h-3zM42 60h3v3h-3zM54 60h3v3h-3zM60 60h3v3h-3zM66 60h3v3h-3zM69 60h3v3h-3zM72 60h3v3h-3zM78 60h3v3h-3zM6 63h3v3h-3zM24 63h3v3h-3zM39 63h3v3h-3zM48 63h3v3h-3zM51 63h3v3h-3zM54 63h3v3h-3zM66 63h3v3h-3zM72 63h3v3h-3zM78 63h3v3h-3zM6 66h3v3h-3zM12 66h3v3h-3zM15 66h3v3h-3zM18 66h3v3h-3zM24 66h3v3h-3zM30 66h3v3h-3zM33 66h3v3h-3zM42 66h3v3h-3zM48 66h3v3h-3zM51 66h3v3h-3zM54 66h3v3h-3zM57 66h3v3h-3zM60 66h3v3h-3zM63 66h3v3h-3zM66 66h3v3h-3zM69 66h3v3h-3zM72 66h3v3h-3zM78 66h3v3h-3zM6 69h3v3h-3zM12 69h3v3h-3zM15 69h3v3h-3zM18 69h3v3h-3zM24 69h3v3h-3zM33 69h3v3h-3zM36 69h3v3h-3zM48 69h3v3h-3zM51 69h3v3h-3zM54 69h3v3h-3zM57 69h3v3h-3zM63 69h3v3h-3zM66 69h3v3h-3zM6 72h3v3h-3zM12 72h3v3h-3zM15 72h3v3h-3zM18 72h3v3h-3zM24 72h3v3h-3zM30 72h3v3h-3zM36 72h3v3h-3zM51 72h3v3h-3zM63 72h3v3h-3zM72 72h3v3h-3zM78 72h3v3h-3zM6 75h3v3h-3zM24 75h3v3h-3zM39 75h3v3h-3zM48 75h3v3h-3zM57 75h3v3h-3zM60 75h3v3h-3zM69 75h3v3h-3zM72 75h3v3h-3zM75 75h3v3h-3zM78 75h3v3h-3zM6 78h3v3h-3zM9 78h3v3h-3zM12 78h3v3h-3zM15 78h3v3h-3zM18 78h3v3h-3zM21 78h3v3h-3zM24 78h3v3h-3zM30 78h3v3h-3zM39 78h3v3h-3zM45 78h3v3h-3zM48 78h3v3h-3zM54 78h3v3h-3zM57 78h3v3h-3zM60 78h3v3h-3zM63 78h3v3h-3zM78 78h3v3h-3z"/></svg>